<?xml version="1.0" encoding="iso-8859-1"?><!-- Generator: Adobe Illustrator 19.2.1, SVG Export Plug-In . SVG Version: 6.00 Build 0)  --><svg xmlns="http://www.w3.org/2000/svg" xmlns:xlink="http://www.w3.org/1999/xlink" version="1.1" id="Layer_1" x="0px" y="0px" viewBox="0 0 80 80" style="enable-background:new 0 0 80 80;" xml:space="preserve" width="80" height="80">
<circle style="fill:#36404D;" cx="71" cy="10" r="3"/>
<g>
	<polygon style="fill:#36404D;" points="74,42 74,17 66,17 66,19 68,19 68,42 66,42 66,44 76,44 76,42  "/>
</g>
<g>
	<path style="fill:#C2E8FF;" d="M4.505,78.5c0.267-12.729,10.704-23,23.495-23h16c12.791,0,23.228,10.271,23.495,23H4.505z"/>
	<g>
		<path style="fill:#7496C4;" d="M44,56c12.347,0,22.453,9.78,22.979,22L5.021,78C5.547,65.78,15.653,56,28,56H44 M44,55H28    C14.745,55,4,65.745,4,79v0h64v0C68,65.745,57.255,55,44,55L44,55z"/>
	</g>
</g>
<g>
	<path style="fill:#E8D47B;" d="M36,62.5c-6.231,0-9.092-4.758-9.5-5.5V45.5h19v11.501C45.084,57.776,42.289,62.5,36,62.5z"/>
	<path style="fill:#BA9B48;" d="M45,46v10.872C44.451,57.84,41.757,62,36,62c-5.76,0-8.454-4.165-9-5.127V46H45 M46,45H26v12.124   c0,0,2.886,5.876,10,5.876s10-5.876,10-5.876V45L46,45z"/>
</g>
<g>
	<g>
		<path style="fill:#E8D47B;" d="M50.286,39.929c-2.875,0-5.214-2.339-5.214-5.214s2.339-5.214,5.214-5.214    c3.704,0,5.214,0.959,5.214,3.31C55.5,35.621,53.164,39.929,50.286,39.929z M21.714,39.929c-2.878,0-5.214-4.308-5.214-7.119    c0-2.351,1.511-3.31,5.214-3.31c2.875,0,5.214,2.339,5.214,5.214S24.589,39.929,21.714,39.929z"/>
	</g>
	<g>
		<path style="fill:#BA9B48;" d="M50.286,30C54.211,30,55,31.075,55,32.81c0,2.829-2.331,6.619-4.714,6.619    c-2.599,0-4.714-2.115-4.714-4.714C45.571,32.115,47.686,30,50.286,30 M21.714,30c2.599,0,4.714,2.115,4.714,4.714    c0,2.599-2.115,4.714-4.714,4.714c-2.384,0-4.714-3.79-4.714-6.619C17,31.075,17.789,30,21.714,30 M50.286,29    c-3.156,0-5.714,2.558-5.714,5.714c0,3.156,2.558,5.714,5.714,5.714c3.156,0,5.714-4.463,5.714-7.619    C56,29.654,53.442,29,50.286,29L50.286,29z M21.714,29C18.558,29,16,29.654,16,32.81c0,3.156,2.558,7.619,5.714,7.619    c3.156,0,5.714-2.558,5.714-5.714C27.429,31.558,24.87,29,21.714,29L21.714,29z"/>
	</g>
</g>
<g>
	<g>
		<path style="fill:#FFEEA3;" d="M36,54.5c-1.343,0-2.639-0.495-3.648-1.393l-0.091-0.081l-0.118-0.03    C25.288,51.237,20.5,45.071,20.5,38V19.403c0-3.929,3.196-7.125,7.125-7.125h16.749c3.929,0,7.125,3.196,7.125,7.125V38    c0,7.071-4.788,13.237-11.643,14.996l-0.118,0.03l-0.091,0.081C38.639,54.005,37.343,54.5,36,54.5z"/>
	</g>
	<g>
		<path style="fill:#BA9B48;" d="M44.375,12.778c3.653,0,6.625,2.972,6.625,6.625V38c0,6.842-4.633,12.81-11.268,14.512l-0.235,0.06    l-0.181,0.161C38.398,53.55,37.22,54,36,54c-1.22,0-2.398-0.45-3.316-1.267l-0.181-0.161l-0.235-0.06    C25.633,50.81,21,44.842,21,38V19.403c0-3.653,2.972-6.625,6.625-6.625H44.375 M44.375,11.778H27.625    c-4.211,0-7.625,3.414-7.625,7.625V38c0,7.46,5.112,13.708,12.019,15.48C33.079,54.423,34.47,55,36,55s2.921-0.577,3.981-1.52    C46.888,51.708,52,45.46,52,38V19.403C52,15.192,48.586,11.778,44.375,11.778L44.375,11.778z"/>
	</g>
</g>
<g>
	<path style="fill:#FFC49C;" d="M51.5,36.5V29c0-7.02-6.83-10.764-7.121-10.92l-0.388-0.208l-0.256,0.359   c-0.042,0.06-4.365,5.983-13.436,5.983c-6.502,0-9.8,2.283-9.8,6.786v5.5h-0.181c-0.686-1.507-3.819-8.734-3.819-14.877   C16.5,10.783,23.935,3.5,35,3.5c8.037,0,10.441,5.461,10.539,5.694l0.129,0.305L46,9.5c3.528,0,9.5,2.428,9.5,11.53   c0,5.623-3.163,13.793-3.836,15.47H51.5z"/>
	<g>
		<path style="fill:#A16A4A;" d="M35,4c7.678,0,9.985,5.17,10.077,5.385L45.334,10H46c0.921,0,9,0.31,9,11.03    c0,4.238-1.84,9.983-3,13.181V29c0-7.316-7.083-11.199-7.384-11.361l-0.779-0.418l-0.51,0.721    c-0.041,0.058-4.187,5.771-13.027,5.771C25.601,23.714,20,24.978,20,31v3.477c-1.152-2.863-3-8.183-3-12.855    C17,11.082,24.234,4,35,4 M35,3c-11.638,0-19,7.962-19,18.623C16,28.684,20,37,20,37h1c0,0,0-4.057,0-6    c0-5.336,5.048-6.286,9.3-6.286c9.46,0,13.843-6.193,13.843-6.193S51,22.198,51,29c0,2.137,0,8,0,8h1c0,0,4-9.535,4-15.97    C56,11.995,50.247,9,46,9C46,9,43.494,3,35,3L35,3z"/>
	</g>
</g>
</svg>